HIERARCHY
ROOT Hips
{
	OFFSET 0.00000 0.00000 0.00000
	CHANNELS 6 Xposition Yposition Zposition Yrotation Zrotation Xrotation 
	JOINT Lumbar
	{
		OFFSET 0 0 0
		CHANNELS 3 Zrotation Xrotation Yrotation
		JOINT Neck
		{
			OFFSET 0.00 0.2701 0.00
			CHANNELS 3 Zrotation Xrotation Yrotation
			End Site
			{
				OFFSET 0.00 0.1379 0.00
			}
		}
		JOINT RightShoulder
		{
			OFFSET 0.0119 0.2289 0.1181
			CHANNELS 3 Zrotation Xrotation Yrotation
			JOINT RightElbow
			{
				OFFSET 0.00 -0.1475 0.00
				CHANNELS 2 Zrotation Yrotation
				JOINT RightWrist
				{
					OFFSET 0.00 -0.1605 0.00
					CHANNELS 2 Zrotation Xrotation
					End Site
					{
						OFFSET 0.0040 -0.1068 0.0006
					}
				}
			}
		}
		JOINT LeftShoulder
		{
			OFFSET 0.0119 0.2289 -0.1181
			CHANNELS 3 Zrotation Xrotation Yrotation
			JOINT LeftElbow
			{
				OFFSET 0.00 -0.1475 0.00
				CHANNELS 2 Zrotation Yrotation
				JOINT LeftWrist
				{
					OFFSET 0.00 -0.1605 0.00
					CHANNELS 2 Zrotation Xrotation
					End Site
					{
						OFFSET 0.0040 -0.1068 -0.0006
					}
				}
			}
		}
	}
	JOINT RightHip
	{
		OFFSET 0.0316 -0.0424 0.0458
		CHANNELS 3 Zrotation Xrotation Yrotation
		JOINT RightKnee
		{
			OFFSET 0.00 -0.2438 0.00
			CHANNELS 1 Zrotation
			JOINT RightAnkle
			{
				OFFSET 0.00 -0.2449 0.00
				CHANNELS 3 Zrotation Xrotation Yrotation
				End Site
				{
					OFFSET 0.1237 -0.0542 0.0051
				}
			}
		}
	}
	JOINT LeftHip
	{
		OFFSET 0.0316 -0.0424 -0.0458
		CHANNELS 3 Zrotation Xrotation Yrotation
		JOINT LeftKnee
		{
			OFFSET 0.00 -0.2438 0.00
			CHANNELS 1 Zrotation
			JOINT LeftAnkle
			{
				OFFSET 0.00 -0.2449 0.00
				CHANNELS 3 Zrotation Xrotation Yrotation
				End Site
				{
					OFFSET 0.1237 -0.0542 -0.0051
				}
			}
		}
	}
}
MOTION
Frames: 11
Frame Time: 0.02
0 0.57926 0 182.98578 0 -3.0645 1.124 2.50103 -7.77219 -32.17235 7.78933 1.94037 -10.20418 -75.75154 -71.58819 21.64127 74.54475 -16.17423 -2.11569 1.27986 62.32924 65.43073 22.88087 -77.6529 -29.4456 3.22384 -2.52358 3.24481 2.7265 -7.81377 -1.92053 -4.00168 -8.42222 0.13844 3.20115 -4.61753 -8.79421 4.25244 1.88175 -0.62832
-0.00032 0.57926 -0.00015 182.98285 0 -3.05614 1.15831 2.4887 -7.75627 -32.22129 7.79651 1.93877 -10.20393 -75.78026 -71.63707 21.59976 74.52873 -16.19368 -2.11356 1.26491 62.32446 65.44208 22.89319 -77.53703 -29.45255 3.2758 -2.56238 3.25427 2.75779 -7.79498 -1.9119 -4.00815 -8.45622 0.1003 3.20935 -4.59217 -8.77564 4.25189 1.88407 -0.64176
-0.00063 0.57926 -0.0003 182.98003 0 -3.04781 1.1924 2.47642 -7.74053 -32.26992 7.80375 1.93717 -10.20364 -75.80913 -71.68581 21.55859 74.51277 -16.21341 -2.11148 1.25013 62.31959 65.45335 22.90546 -77.42222 -29.45943 3.32737 -2.60097 3.26368 2.78877 -7.77632 -1.90326 -4.0146 -8.49 0.06251 3.21749 -4.56711 -8.75747 4.25146 1.88639 -0.65505
-0.00094 0.57926 -0.00045 182.97783 0 -3.03953 1.22589 2.46418 -7.72545 -32.31764 7.81127 1.93551 -10.20373 -75.83868 -71.73492 21.51825 74.497 -16.23433 -2.10959 1.23587 62.31456 65.46448 22.91758 -77.3099 -29.46609 3.37799 -2.63918 3.27305 2.81878 -7.758 -1.89454 -4.02097 -8.52349 0.02591 3.22549 -4.54313 -8.74088 4.25145 1.88874 -0.66792
-0.00127 0.57926 -0.0006 182.97258 0 -3.03096 1.2625 2.45167 -7.70698 -32.37003 7.81731 1.93412 -10.20247 -75.86441 -71.78263 21.47334 74.48035 -16.24879 -2.1067 1.21885 62.31065 65.47645 22.93043 -77.18364 -29.47392 3.43378 -2.67947 3.2827 2.85388 -7.73786 -1.8863 -4.02771 -8.55884 -0.01676 3.23424 -4.51357 -8.71612 4.24914 1.89089 -0.68311
-0.00156 0.57925 -0.00075 182.97362 0 -3.02303 1.29251 2.43976 -7.69565 -32.41255 7.82646 1.9322 -10.20363 -75.89834 -71.83287 21.43826 74.4655 -16.277 -2.10593 1.20769 62.3042 65.48653 22.94176 -77.08747 -29.47926 3.47846 -2.71529 3.29173 2.87822 -7.72163 -1.87703 -4.03367 -8.59002 -0.04671 3.24139 -4.49573 -8.70851 4.25173 1.89348 -0.69332
-0.00176 0.57925 -0.00087 182.99419 0 -3.01672 1.30419 2.42932 -7.70491 -32.42745 7.84486 1.9284 -10.21521 -75.95531 -71.89471 21.42944 74.45582 -16.34454 -2.11103 1.21296 62.2916 65.49219 22.94881 -77.07073 -29.47762 3.49388 -2.73938 3.29929 2.87196 -7.71578 -1.86472 -4.03748 -8.61171 -0.03979 3.24403 -4.51192 -8.75117 4.26834 1.89721 -0.68991
-0.00192 0.57924 -0.00099 183.02076 0 -3.01109 1.30924 2.41953 -7.72125 -32.43245 7.86631 1.92414 -10.22852 -76.02052 -71.95823 21.43073 74.44788 -16.42571 -2.11824 1.2242 62.27619 65.49569 22.95436 -77.08493 -29.47342 3.4979 -2.75885 3.30617 2.85501 -7.71395 -1.85141 -4.04049 -8.62888 -0.02033 3.24507 -4.53965 -8.81067 4.28982 1.90138 -0.68144
-0.00209 0.57923 -0.00111 183.04318 0 -3.00526 1.31745 2.40958 -7.73377 -32.44224 7.88593 1.92036 -10.23869 -76.08181 -72.01816 21.42792 74.43899 -16.49995 -2.12448 1.23246 62.26159 65.49977 22.96067 -77.08745 -29.47056 3.50613 -2.78005 3.31322 2.8435 -7.71054 -1.83868 -4.04386 -8.64678 -0.00775 3.24689 -4.561 -8.86057 4.30879 1.90541 -0.67519
-0.00227 0.57922 -0.00124 183.07155 0 -2.99897 1.32509 2.39906 -7.74877 -32.45084 7.90737 1.91543 -10.25899 -76.14396 -72.09039 21.42292 74.43082 -16.57761 -2.13081 1.24149 62.24925 65.50599 22.96663 -77.08029 -29.46722 3.51818 -2.80282 3.32089 2.82949 -7.70605 -1.8254 -4.04725 -8.67008 0.00977 3.24847 -4.58708 -8.9186 4.32902 1.90922 -0.66929
-0.00244 0.57922 -0.00134 183.08904 0 -2.9938 1.33228 2.38989 -7.76036 -32.45948 7.92579 1.91276 -10.25833 -76.20613 -72.13693 21.42501 74.42148 -16.65098 -2.13739 1.25075 62.23117 65.50671 22.97298 -77.10018 -29.46392 3.51992 -2.8212 3.32708 2.81821 -7.7048 -1.81303 -4.05042 -8.68129 0.02006 3.25015 -4.60613 -8.9638 4.34777 1.91356 -0.66146
